M48
; DRILL file {KiCad 8.0.3} date 2024-09-04T22:14:48+0200
; FORMAT={-:-/ absolute / inch / decimal}
; #@! TF.CreationDate,2024-09-04T22:14:48+02:00
; #@! TF.GenerationSoftware,Kicad,Pcbnew,8.0.3
; #@! TF.FileFunction,NonPlated,1,2,NPTH
FMAT,2
INCH
; #@! TA.AperFunction,NonPlated,NPTH,ComponentDrill
T1C0.0256
; #@! TA.AperFunction,NonPlated,NPTH,ComponentDrill
T2C0.0689
; #@! TA.AperFunction,NonPlated,NPTH,ComponentDrill
T3C0.1570
%
G90
G05
T1
X6.0112Y-1.9149
X6.2388Y-1.9149
T2
X1.8534Y-3.3627
X1.9992Y-2.6211
X2.1451Y-1.8794
X2.2524Y-3.3906
X2.3983Y-2.649
X2.5441Y-1.9073
X2.6016Y-3.415
X2.8409Y-2.6799
X3.0006Y-3.4429
X3.0803Y-1.9448
X3.24Y-2.7078
X3.3498Y-3.4673
X3.4793Y-1.9727
X3.5891Y-2.7322
X3.7488Y-3.4952
X3.8285Y-1.9971
X3.9881Y-2.7601
X4.0979Y-3.5196
X4.2275Y-2.025
X4.3373Y-2.7846
X4.497Y-3.5476
X4.5766Y-2.0495
X4.7363Y-2.8125
X4.8461Y-3.572
X4.9757Y-2.0774
X5.0855Y-2.8369
X5.2451Y-3.5999
X5.3248Y-2.1018
X5.4845Y-2.8648
X5.7238Y-2.1297
X6.5386Y-2.0892
X6.7368Y-3.579
X6.778Y-2.8243
X6.9377Y-2.0613
X7.1358Y-3.5511
X7.177Y-2.7964
X7.2868Y-2.0368
X7.5262Y-2.7719
X7.6858Y-2.0089
X7.7655Y-3.507
X7.9252Y-2.744
X8.035Y-1.9845
X8.1646Y-3.4791
X8.2743Y-2.7196
X8.434Y-1.9566
X8.5137Y-3.4547
X8.6734Y-2.6917
X8.7832Y-1.9322
X8.9127Y-3.4268
X9.0225Y-2.6673
X9.1822Y-1.9043
X9.2619Y-3.4024
X9.4215Y-2.6394
X9.6609Y-3.3745
X9.7184Y-1.8668
X9.8642Y-2.6084
X10.0101Y-3.3501
X10.1174Y-1.8389
X10.2632Y-2.5805
X10.4091Y-3.3222
T3
X2.0529Y-3.3766
X2.1988Y-2.635
X2.3446Y-1.8934
X2.8011Y-3.429
X3.0405Y-2.6939
X3.2798Y-1.9588
X3.5493Y-3.4813
X3.7886Y-2.7462
X4.028Y-2.0111
X4.2974Y-3.5336
X4.5368Y-2.7985
X4.7762Y-2.0634
X5.0456Y-3.5859
X5.285Y-2.8508
X5.5243Y-2.1157
X6.7381Y-2.0752
X6.9363Y-3.565
X6.9775Y-2.8103
X7.4863Y-2.0229
X7.7257Y-2.758
X7.965Y-3.4931
X8.2345Y-1.9706
X8.4739Y-2.7057
X8.7132Y-3.4408
X8.9827Y-1.9183
X9.222Y-2.6534
X9.4614Y-3.3884
X9.9179Y-1.8529
X10.0637Y-2.5945
X10.2096Y-3.3361
M30
