%TF.GenerationSoftware,KiCad,Pcbnew,8.0.3*%
%TF.CreationDate,2024-09-04T22:21:18+02:00*%
%TF.ProjectId,peanut,7065616e-7574-42e6-9b69-6361645f7063,rev?*%
%TF.SameCoordinates,Original*%
%TF.FileFunction,Soldermask,Bot*%
%TF.FilePolarity,Negative*%
%FSLAX46Y46*%
G04 Gerber Fmt 4.6, Leading zero omitted, Abs format (unit mm)*
G04 Created by KiCad (PCBNEW 8.0.3) date 2024-09-04 22:21:18*
%MOMM*%
%LPD*%
G01*
G04 APERTURE LIST*
G04 Aperture macros list*
%AMRoundRect*
0 Rectangle with rounded corners*
0 $1 Rounding radius*
0 $2 $3 $4 $5 $6 $7 $8 $9 X,Y pos of 4 corners*
0 Add a 4 corners polygon primitive as box body*
4,1,4,$2,$3,$4,$5,$6,$7,$8,$9,$2,$3,0*
0 Add four circle primitives for the rounded corners*
1,1,$1+$1,$2,$3*
1,1,$1+$1,$4,$5*
1,1,$1+$1,$6,$7*
1,1,$1+$1,$8,$9*
0 Add four rect primitives between the rounded corners*
20,1,$1+$1,$2,$3,$4,$5,0*
20,1,$1+$1,$4,$5,$6,$7,0*
20,1,$1+$1,$6,$7,$8,$9,0*
20,1,$1+$1,$8,$9,$2,$3,0*%
G04 Aperture macros list end*
%ADD10C,2.000000*%
%ADD11RoundRect,0.500000X0.463904X-0.533660X0.533660X0.463904X-0.463904X0.533660X-0.533660X-0.463904X0*%
%ADD12RoundRect,0.550000X0.468440X-1.185565X0.628880X1.108833X-0.468440X1.185565X-0.628880X-1.108833X0*%
%ADD13C,1.750000*%
%ADD14C,3.987800*%
%ADD15C,3.300000*%
%ADD16RoundRect,0.250000X0.952747X1.069064X-1.092260X0.926064X-0.952747X-1.069064X1.092260X-0.926064X0*%
%ADD17RoundRect,0.250000X1.092260X0.926064X-0.952747X1.069064X-1.092260X-0.926064X0.952747X-1.069064X0*%
%ADD18RoundRect,0.250000X0.320196X-0.278342X0.278342X0.320196X-0.320196X0.278342X-0.278342X-0.320196X0*%
%ADD19RoundRect,0.150000X-0.108653X0.596532X-0.190617X-0.575605X0.108653X-0.596532X0.190617X0.575605X0*%
%ADD20RoundRect,0.250000X0.337500X0.475000X-0.337500X0.475000X-0.337500X-0.475000X0.337500X-0.475000X0*%
%ADD21RoundRect,0.150000X-0.190617X0.575605X-0.108653X-0.596532X0.190617X-0.575605X0.108653X0.596532X0*%
%ADD22RoundRect,0.250000X0.278342X-0.320196X0.320196X0.278342X-0.278342X0.320196X-0.320196X-0.278342X0*%
%ADD23C,0.650000*%
%ADD24R,0.600000X1.450000*%
%ADD25R,0.300000X1.450000*%
%ADD26O,1.000000X1.600000*%
%ADD27O,1.000000X2.100000*%
%ADD28RoundRect,0.250000X-0.250000X0.600000X-0.250000X-0.600000X0.250000X-0.600000X0.250000X0.600000X0*%
%ADD29RoundRect,0.150000X-0.150000X0.700000X-0.150000X-0.700000X0.150000X-0.700000X0.150000X0.700000X0*%
%ADD30RoundRect,0.200000X-0.200000X-0.800000X0.200000X-0.800000X0.200000X0.800000X-0.200000X0.800000X0*%
%ADD31RoundRect,0.075000X0.075000X-0.662500X0.075000X0.662500X-0.075000X0.662500X-0.075000X-0.662500X0*%
%ADD32RoundRect,0.075000X0.662500X-0.075000X0.662500X0.075000X-0.662500X0.075000X-0.662500X-0.075000X0*%
%ADD33RoundRect,0.250000X-0.337500X-0.475000X0.337500X-0.475000X0.337500X0.475000X-0.337500X0.475000X0*%
%ADD34RoundRect,0.250000X-0.450000X0.350000X-0.450000X-0.350000X0.450000X-0.350000X0.450000X0.350000X0*%
%ADD35RoundRect,0.250000X-0.350000X-0.450000X0.350000X-0.450000X0.350000X0.450000X-0.350000X0.450000X0*%
%ADD36RoundRect,0.162500X-0.162500X0.617500X-0.162500X-0.617500X0.162500X-0.617500X0.162500X0.617500X0*%
%ADD37RoundRect,0.250001X-0.624999X0.462499X-0.624999X-0.462499X0.624999X-0.462499X0.624999X0.462499X0*%
G04 APERTURE END LIST*
D10*
%TO.C,SW1*%
X125141422Y-98389663D03*
X130129243Y-98738444D03*
D11*
X127635333Y-98564053D03*
D12*
X122572147Y-90691686D03*
X133744865Y-91472960D03*
D10*
X131140712Y-84273765D03*
X126152892Y-83924984D03*
%TD*%
D13*
%TO.C,MX19*%
X239307090Y-67040739D03*
D14*
X234239465Y-67395102D03*
D13*
X229171840Y-67749465D03*
D15*
X230261568Y-65127061D03*
D16*
X226720212Y-65374697D03*
X239960267Y-61902660D03*
D15*
X236418915Y-62150295D03*
%TD*%
D13*
%TO.C,MX14*%
X120302296Y-71436444D03*
D14*
X115234671Y-71082082D03*
D13*
X110167046Y-70727720D03*
D15*
X111611133Y-68282496D03*
D17*
X108069781Y-68034861D03*
X121664199Y-66439275D03*
D15*
X118122847Y-66191638D03*
%TD*%
D18*
%TO.C,D6*%
X174392944Y-54702972D03*
X174197628Y-51909792D03*
%TD*%
D13*
%TO.C,MX29*%
X245386954Y-85712121D03*
D14*
X240319329Y-86066484D03*
D13*
X235251704Y-86420847D03*
D15*
X236341432Y-83798443D03*
D16*
X232800076Y-84046079D03*
X246040131Y-80574042D03*
D15*
X242498779Y-80821677D03*
%TD*%
D19*
%TO.C,D4*%
X104686461Y-74404765D03*
X106581833Y-74537302D03*
X105503353Y-76341466D03*
%TD*%
D20*
%TO.C,C5*%
X148675000Y-89693750D03*
X146600000Y-89693750D03*
%TD*%
D13*
%TO.C,MX11*%
X60916061Y-67283755D03*
D14*
X55848436Y-66929392D03*
D13*
X50780811Y-66575029D03*
D15*
X52224898Y-64129807D03*
D17*
X48683546Y-63882172D03*
X62277964Y-62286584D03*
D15*
X58736612Y-62038948D03*
%TD*%
D20*
%TO.C,C1*%
X148675000Y-80168750D03*
X146600000Y-80168750D03*
%TD*%
D13*
%TO.C,MX5*%
X145385650Y-54093925D03*
D14*
X140318025Y-53739563D03*
D13*
X135250400Y-53385201D03*
D15*
X136694487Y-50939977D03*
D17*
X133153135Y-50692342D03*
X146747553Y-49096756D03*
D15*
X143206201Y-48849119D03*
%TD*%
D13*
%TO.C,MX1*%
X64620371Y-48446267D03*
D14*
X59552746Y-48091904D03*
D13*
X54485121Y-47737541D03*
D15*
X55929208Y-45292319D03*
D17*
X52387856Y-45044684D03*
X65982274Y-43449096D03*
D15*
X62440922Y-43201460D03*
%TD*%
D18*
%TO.C,D16*%
X180278908Y-73627840D03*
X180083592Y-70834660D03*
%TD*%
D21*
%TO.C,D13*%
X243461917Y-71362302D03*
X245357289Y-71229765D03*
X244540397Y-73166466D03*
%TD*%
%TO.C,D9*%
X198218167Y-54693552D03*
X200113539Y-54561015D03*
X199296647Y-56497716D03*
%TD*%
D19*
%TO.C,D2*%
X110242711Y-55354765D03*
X112138083Y-55487302D03*
X111059603Y-57291466D03*
%TD*%
D22*
%TO.C,D5*%
X143053585Y-56774303D03*
X143248903Y-53981123D03*
%TD*%
D13*
%TO.C,MX23*%
X95218941Y-88778963D03*
D14*
X90151316Y-88424601D03*
D13*
X85083691Y-88070239D03*
D15*
X86527778Y-85625015D03*
D17*
X82986426Y-85377380D03*
X96580844Y-83781794D03*
D15*
X93039492Y-83534157D03*
%TD*%
D19*
%TO.C,D7*%
X60236461Y-90279765D03*
X62131833Y-90412302D03*
X61053353Y-92216466D03*
%TD*%
D13*
%TO.C,MX17*%
X201299972Y-69698479D03*
D14*
X196232347Y-70052842D03*
D13*
X191164722Y-70407205D03*
D15*
X192254450Y-67784801D03*
D16*
X188713094Y-68032437D03*
X201953149Y-64560400D03*
D15*
X198411797Y-64808035D03*
%TD*%
D23*
%TO.C,J1*%
X152685000Y-48637500D03*
X158465000Y-48637500D03*
D24*
X152325000Y-50082500D03*
X153125000Y-50082500D03*
D25*
X154325000Y-50082500D03*
X155325000Y-50082500D03*
X155825000Y-50082500D03*
X156825000Y-50082500D03*
D24*
X158025000Y-50082500D03*
X158825000Y-50082500D03*
X158825000Y-50082500D03*
X158025000Y-50082500D03*
D25*
X157325000Y-50082500D03*
X156325000Y-50082500D03*
X154825000Y-50082500D03*
X153825000Y-50082500D03*
D24*
X153125000Y-50082500D03*
X152325000Y-50082500D03*
D26*
X151255000Y-44987500D03*
D27*
X151255000Y-49167500D03*
D26*
X159895000Y-44987500D03*
D27*
X159895000Y-49167500D03*
%TD*%
D20*
%TO.C,C6*%
X148675000Y-77787500D03*
X146600000Y-77787500D03*
%TD*%
D19*
%TO.C,D8*%
X98336461Y-93454765D03*
X100231833Y-93587302D03*
X99153353Y-95391466D03*
%TD*%
D22*
%TO.C,D15*%
X136973826Y-75445682D03*
X137169144Y-72652502D03*
%TD*%
D28*
%TO.C,U3*%
X153931200Y-58825000D03*
D29*
X155631200Y-58825000D03*
X155631200Y-61825000D03*
X153731200Y-61825000D03*
%TD*%
D13*
%TO.C,MX27*%
X207379706Y-88369861D03*
D14*
X202312081Y-88724224D03*
D13*
X197244456Y-89078587D03*
D15*
X198334184Y-86456183D03*
D16*
X194792828Y-86703819D03*
X208032883Y-83231782D03*
D15*
X204491531Y-83479417D03*
%TD*%
D30*
%TO.C,SW2*%
X159825000Y-68262500D03*
X164025000Y-68262500D03*
%TD*%
D13*
%TO.C,MX20*%
X260686233Y-65545845D03*
D14*
X255618608Y-65900208D03*
D13*
X250550983Y-66254571D03*
D15*
X251640711Y-63632167D03*
D16*
X248099355Y-63879803D03*
X261339410Y-60407766D03*
D15*
X257798058Y-60655401D03*
%TD*%
D19*
%TO.C,D3*%
X64998961Y-72023515D03*
X66894333Y-72156052D03*
X65815853Y-73960216D03*
%TD*%
D31*
%TO.C,U1*%
X156737500Y-89093750D03*
X156237500Y-89093750D03*
X155737500Y-89093750D03*
X155237500Y-89093750D03*
X154737500Y-89093750D03*
X154237500Y-89093750D03*
X153737500Y-89093750D03*
X153237500Y-89093750D03*
X152737500Y-89093750D03*
X152237500Y-89093750D03*
X151737500Y-89093750D03*
X151237500Y-89093750D03*
D32*
X149825000Y-87681250D03*
X149825000Y-87181250D03*
X149825000Y-86681250D03*
X149825000Y-86181250D03*
X149825000Y-85681250D03*
X149825000Y-85181250D03*
X149825000Y-84681250D03*
X149825000Y-84181250D03*
X149825000Y-83681250D03*
X149825000Y-83181250D03*
X149825000Y-82681250D03*
X149825000Y-82181250D03*
D31*
X151237500Y-80768750D03*
X151737500Y-80768750D03*
X152237500Y-80768750D03*
X152737500Y-80768750D03*
X153237500Y-80768750D03*
X153737500Y-80768750D03*
X154237500Y-80768750D03*
X154737500Y-80768750D03*
X155237500Y-80768750D03*
X155737500Y-80768750D03*
X156237500Y-80768750D03*
X156737500Y-80768750D03*
D32*
X158150000Y-82181250D03*
X158150000Y-82681250D03*
X158150000Y-83181250D03*
X158150000Y-83681250D03*
X158150000Y-84181250D03*
X158150000Y-84681250D03*
X158150000Y-85181250D03*
X158150000Y-85681250D03*
X158150000Y-86181250D03*
X158150000Y-86681250D03*
X158150000Y-87181250D03*
X158150000Y-87681250D03*
%TD*%
D13*
%TO.C,MX15*%
X139305891Y-72765305D03*
D14*
X134238266Y-72410943D03*
D13*
X129170641Y-72056581D03*
D15*
X130614728Y-69611357D03*
D17*
X127073376Y-69363722D03*
X140667794Y-67768136D03*
D15*
X137126442Y-67520499D03*
%TD*%
D13*
%TO.C,MX12*%
X82295105Y-68778722D03*
D14*
X77227480Y-68424360D03*
D13*
X72159855Y-68069998D03*
D15*
X73603942Y-65624774D03*
D17*
X70062590Y-65377139D03*
X83657008Y-63781553D03*
D15*
X80115656Y-63533916D03*
%TD*%
D22*
%TO.C,D25*%
X130894066Y-94117062D03*
X131089384Y-91323882D03*
%TD*%
D13*
%TO.C,MX16*%
X182296271Y-71027350D03*
D14*
X177228646Y-71381713D03*
D13*
X172161021Y-71736076D03*
D15*
X173250749Y-69113672D03*
D16*
X169709393Y-69361308D03*
X182949448Y-65889271D03*
D15*
X179408096Y-66136906D03*
%TD*%
D13*
%TO.C,MX7*%
X195220130Y-51027100D03*
D14*
X190152505Y-51381463D03*
D13*
X185084880Y-51735826D03*
D15*
X186174608Y-49113422D03*
D16*
X182633252Y-49361058D03*
X195873307Y-45889021D03*
D15*
X192331955Y-46136656D03*
%TD*%
D13*
%TO.C,MX3*%
X107378460Y-51436203D03*
D14*
X102310835Y-51081841D03*
D13*
X97243210Y-50727479D03*
D15*
X98687297Y-48282255D03*
D17*
X95145945Y-48034620D03*
X108740363Y-46439034D03*
D15*
X105199011Y-46191397D03*
%TD*%
D13*
%TO.C,MX8*%
X214223807Y-49698230D03*
D14*
X209156182Y-50052593D03*
D13*
X204088557Y-50406956D03*
D15*
X205178285Y-47784552D03*
D16*
X201636929Y-48032188D03*
X214876984Y-44560151D03*
D15*
X211335632Y-44807786D03*
%TD*%
D13*
%TO.C,MX26*%
X181249732Y-90197074D03*
D14*
X176182107Y-90551437D03*
D13*
X171114482Y-90905800D03*
D15*
X172204210Y-88283396D03*
D16*
X168662854Y-88531032D03*
X181902909Y-85058995D03*
D15*
X178361557Y-85306630D03*
%TD*%
D13*
%TO.C,MX21*%
X57211751Y-86121241D03*
D14*
X52144126Y-85766879D03*
D13*
X47076501Y-85412517D03*
D15*
X48520588Y-82967293D03*
D17*
X44979236Y-82719658D03*
X58573654Y-81124072D03*
D15*
X55032302Y-80876435D03*
%TD*%
D33*
%TO.C,C2*%
X159300000Y-80168750D03*
X161375000Y-80168750D03*
%TD*%
D13*
%TO.C,MX28*%
X226383269Y-87040992D03*
D14*
X221315644Y-87395355D03*
D13*
X216248019Y-87749718D03*
D15*
X217337747Y-85127314D03*
D16*
X213796391Y-85374950D03*
X227036446Y-81902913D03*
D15*
X223495094Y-82150548D03*
%TD*%
D34*
%TO.C,R3*%
X157956250Y-53768750D03*
X157956250Y-55768750D03*
%TD*%
D13*
%TO.C,MX18*%
X220303535Y-68369612D03*
D14*
X215235910Y-68723975D03*
D13*
X210168285Y-69078338D03*
D15*
X211258013Y-66455934D03*
D16*
X207716657Y-66703570D03*
X220956712Y-63231533D03*
D15*
X217415360Y-63479168D03*
%TD*%
D33*
%TO.C,C8*%
X147393750Y-71200000D03*
X149468750Y-71200000D03*
%TD*%
D13*
%TO.C,MX30*%
X264390525Y-84383254D03*
D14*
X259322900Y-84737617D03*
D13*
X254255275Y-85091980D03*
D15*
X255345003Y-82469576D03*
D16*
X251803647Y-82717212D03*
X265043702Y-79245175D03*
D15*
X261502350Y-79492810D03*
%TD*%
D13*
%TO.C,MX4*%
X126382055Y-52765064D03*
D14*
X121314430Y-52410702D03*
D13*
X116246805Y-52056340D03*
D15*
X117690892Y-49611116D03*
D17*
X114149540Y-49363481D03*
X127743958Y-47767895D03*
D15*
X124202606Y-47520258D03*
%TD*%
D35*
%TO.C,R1*%
X160925000Y-71437500D03*
X162925000Y-71437500D03*
%TD*%
D13*
%TO.C,MX6*%
X176216552Y-52355970D03*
D14*
X171148927Y-52710333D03*
D13*
X166081302Y-53064696D03*
D15*
X167171030Y-50442292D03*
D16*
X163629674Y-50689928D03*
X176869729Y-47217891D03*
D15*
X173328377Y-47465526D03*
%TD*%
D33*
%TO.C,C3*%
X159300000Y-89693750D03*
X161375000Y-89693750D03*
%TD*%
D20*
%TO.C,C7*%
X148675000Y-92075000D03*
X146600000Y-92075000D03*
%TD*%
D13*
%TO.C,MX25*%
X133226131Y-91436685D03*
D14*
X128158506Y-91082323D03*
D13*
X123090881Y-90727961D03*
D15*
X124534968Y-88282737D03*
D17*
X120993616Y-88035102D03*
X134588034Y-86439516D03*
D15*
X131046682Y-86191879D03*
%TD*%
D36*
%TO.C,U2*%
X147481250Y-65881250D03*
X148431250Y-65881250D03*
X149381250Y-65881250D03*
X149381250Y-68581250D03*
X147481250Y-68581250D03*
%TD*%
D37*
%TO.C,F1*%
X150812500Y-53281250D03*
X150812500Y-56256250D03*
%TD*%
D13*
%TO.C,MX2*%
X88374865Y-50107342D03*
D14*
X83307240Y-49752980D03*
D13*
X78239615Y-49398618D03*
D15*
X79683702Y-46953394D03*
D17*
X76142350Y-46705759D03*
X89736768Y-45110173D03*
D15*
X86195416Y-44862536D03*
%TD*%
D13*
%TO.C,MX10*%
X256981940Y-46708305D03*
D14*
X251914315Y-47062668D03*
D13*
X246846690Y-47417031D03*
D15*
X247936418Y-44794627D03*
D16*
X244395062Y-45042263D03*
X257635117Y-41570226D03*
D15*
X254093765Y-41817861D03*
%TD*%
D34*
%TO.C,R2*%
X153987500Y-53768750D03*
X153987500Y-55768750D03*
%TD*%
D13*
%TO.C,MX22*%
X76215346Y-87450102D03*
D14*
X71147721Y-87095740D03*
D13*
X66080096Y-86741378D03*
D15*
X67524183Y-84296154D03*
D17*
X63982831Y-84048519D03*
X77577249Y-82452933D03*
D15*
X74035897Y-82205296D03*
%TD*%
D13*
%TO.C,MX24*%
X114222536Y-90107824D03*
D14*
X109154911Y-89753462D03*
D13*
X104087286Y-89399100D03*
D15*
X105531373Y-86953876D03*
D17*
X101990021Y-86706241D03*
X115584439Y-85110655D03*
D15*
X112043087Y-84863018D03*
%TD*%
D21*
%TO.C,D14*%
X237905667Y-52312302D03*
X239801039Y-52179765D03*
X238984147Y-54116466D03*
%TD*%
%TO.C,D10*%
X204568167Y-73743552D03*
X206463539Y-73611015D03*
X205646647Y-75547716D03*
%TD*%
D33*
%TO.C,C4*%
X159300000Y-92075000D03*
X161375000Y-92075000D03*
%TD*%
D19*
%TO.C,D1*%
X69761461Y-52973515D03*
X71656833Y-53106052D03*
X70578353Y-54910216D03*
%TD*%
D21*
%TO.C,D11*%
X210674425Y-92584846D03*
X212569797Y-92452309D03*
X211752905Y-94389010D03*
%TD*%
%TO.C,D12*%
X248794207Y-89929346D03*
X250689579Y-89796809D03*
X249872687Y-91733510D03*
%TD*%
D18*
%TO.C,D26*%
X179454767Y-92741777D03*
X179259449Y-89948597D03*
%TD*%
D13*
%TO.C,MX9*%
X233227378Y-48369361D03*
D14*
X228159753Y-48723724D03*
D13*
X223092128Y-49078087D03*
D15*
X224181856Y-46455683D03*
D16*
X220640500Y-46703319D03*
X233880555Y-43231282D03*
D15*
X230339203Y-43478917D03*
%TD*%
D13*
%TO.C,MX13*%
X101298700Y-70107583D03*
D14*
X96231075Y-69753221D03*
D13*
X91163450Y-69398859D03*
D15*
X92607537Y-66953635D03*
D17*
X89066185Y-66706000D03*
X102660603Y-65110414D03*
D15*
X99119251Y-64862777D03*
%TD*%
M02*
