%TF.GenerationSoftware,KiCad,Pcbnew,8.0.3*%
%TF.CreationDate,2024-09-04T22:14:47+02:00*%
%TF.ProjectId,peanut,7065616e-7574-42e6-9b69-6361645f7063,rev?*%
%TF.SameCoordinates,Original*%
%TF.FileFunction,Legend,Top*%
%TF.FilePolarity,Positive*%
%FSLAX46Y46*%
G04 Gerber Fmt 4.6, Leading zero omitted, Abs format (unit mm)*
G04 Created by KiCad (PCBNEW 8.0.3) date 2024-09-04 22:14:47*
%MOMM*%
%LPD*%
G01*
G04 APERTURE LIST*
%ADD10C,0.600000*%
%ADD11C,0.200000*%
%ADD12C,0.800000*%
%ADD13C,0.000000*%
%ADD14C,0.120000*%
G04 APERTURE END LIST*
D10*
X158750000Y-91281250D02*
X158750000Y-54768750D01*
D11*
X126730248Y-95392069D02*
X127062769Y-95415321D01*
X127168739Y-95947820D02*
X126693708Y-95914603D01*
X126693708Y-95914603D02*
X126763465Y-94917039D01*
X126763465Y-94917039D02*
X127238495Y-94950256D01*
X127596267Y-95977716D02*
X127666023Y-94980152D01*
X127666023Y-94980152D02*
X128166303Y-96017577D01*
X128166303Y-96017577D02*
X128236060Y-95020013D01*
X129218014Y-95995649D02*
X129167189Y-96039830D01*
X129167189Y-96039830D02*
X129021358Y-96077368D01*
X129021358Y-96077368D02*
X128926352Y-96070724D01*
X128926352Y-96070724D02*
X128787164Y-96013256D01*
X128787164Y-96013256D02*
X128698802Y-95911607D01*
X128698802Y-95911607D02*
X128657942Y-95813279D01*
X128657942Y-95813279D02*
X128623726Y-95619945D01*
X128623726Y-95619945D02*
X128633691Y-95477436D01*
X128633691Y-95477436D02*
X128694481Y-95290745D01*
X128694481Y-95290745D02*
X128748628Y-95199061D01*
X128748628Y-95199061D02*
X128850277Y-95110698D01*
X128850277Y-95110698D02*
X128996108Y-95073160D01*
X128996108Y-95073160D02*
X129091114Y-95079804D01*
X129091114Y-95079804D02*
X129230302Y-95137272D01*
X129230302Y-95137272D02*
X129274483Y-95188097D01*
D12*
X151519769Y-92898214D02*
X159519769Y-92898214D01*
X151900721Y-92898214D02*
X151519769Y-92136309D01*
X151519769Y-92136309D02*
X151519769Y-90612499D01*
X151519769Y-90612499D02*
X151900721Y-89850595D01*
X151900721Y-89850595D02*
X152281673Y-89469642D01*
X152281673Y-89469642D02*
X153043578Y-89088690D01*
X153043578Y-89088690D02*
X155329292Y-89088690D01*
X155329292Y-89088690D02*
X156091197Y-89469642D01*
X156091197Y-89469642D02*
X156472150Y-89850595D01*
X156472150Y-89850595D02*
X156853102Y-90612499D01*
X156853102Y-90612499D02*
X156853102Y-92136309D01*
X156853102Y-92136309D02*
X156472150Y-92898214D01*
X156472150Y-82612500D02*
X156853102Y-83374404D01*
X156853102Y-83374404D02*
X156853102Y-84898214D01*
X156853102Y-84898214D02*
X156472150Y-85660119D01*
X156472150Y-85660119D02*
X155710245Y-86041071D01*
X155710245Y-86041071D02*
X152662626Y-86041071D01*
X152662626Y-86041071D02*
X151900721Y-85660119D01*
X151900721Y-85660119D02*
X151519769Y-84898214D01*
X151519769Y-84898214D02*
X151519769Y-83374404D01*
X151519769Y-83374404D02*
X151900721Y-82612500D01*
X151900721Y-82612500D02*
X152662626Y-82231547D01*
X152662626Y-82231547D02*
X153424530Y-82231547D01*
X153424530Y-82231547D02*
X154186435Y-86041071D01*
X156853102Y-75374404D02*
X152662626Y-75374404D01*
X152662626Y-75374404D02*
X151900721Y-75755357D01*
X151900721Y-75755357D02*
X151519769Y-76517261D01*
X151519769Y-76517261D02*
X151519769Y-78041071D01*
X151519769Y-78041071D02*
X151900721Y-78802976D01*
X156472150Y-75374404D02*
X156853102Y-76136309D01*
X156853102Y-76136309D02*
X156853102Y-78041071D01*
X156853102Y-78041071D02*
X156472150Y-78802976D01*
X156472150Y-78802976D02*
X155710245Y-79183928D01*
X155710245Y-79183928D02*
X154948340Y-79183928D01*
X154948340Y-79183928D02*
X154186435Y-78802976D01*
X154186435Y-78802976D02*
X153805483Y-78041071D01*
X153805483Y-78041071D02*
X153805483Y-76136309D01*
X153805483Y-76136309D02*
X153424530Y-75374404D01*
X151519769Y-71564881D02*
X156853102Y-71564881D01*
X152281673Y-71564881D02*
X151900721Y-71183928D01*
X151900721Y-71183928D02*
X151519769Y-70422023D01*
X151519769Y-70422023D02*
X151519769Y-69279166D01*
X151519769Y-69279166D02*
X151900721Y-68517262D01*
X151900721Y-68517262D02*
X152662626Y-68136309D01*
X152662626Y-68136309D02*
X156853102Y-68136309D01*
X151519769Y-60898214D02*
X156853102Y-60898214D01*
X151519769Y-64326786D02*
X155710245Y-64326786D01*
X155710245Y-64326786D02*
X156472150Y-63945833D01*
X156472150Y-63945833D02*
X156853102Y-63183928D01*
X156853102Y-63183928D02*
X156853102Y-62041071D01*
X156853102Y-62041071D02*
X156472150Y-61279167D01*
X156472150Y-61279167D02*
X156091197Y-60898214D01*
X151519769Y-58231548D02*
X151519769Y-55183929D01*
X148853102Y-57088691D02*
X155710245Y-57088691D01*
X155710245Y-57088691D02*
X156472150Y-56707738D01*
X156472150Y-56707738D02*
X156853102Y-55945833D01*
X156853102Y-55945833D02*
X156853102Y-55183929D01*
D13*
%TO.C,G\u002A\u002A\u002A*%
G36*
X67056407Y-75034884D02*
G01*
X68381277Y-75127528D01*
X68062813Y-79681767D01*
X67744350Y-84236005D01*
X66419481Y-84143361D01*
X65094611Y-84050717D01*
X65413073Y-79496479D01*
X65731537Y-74942240D01*
X67056407Y-75034884D01*
G37*
G36*
X68585031Y-53174540D02*
G01*
X69909901Y-53267184D01*
X69591438Y-57821422D01*
X69272974Y-62375661D01*
X67948104Y-62283017D01*
X66623235Y-62190373D01*
X66941698Y-57636134D01*
X67260161Y-53081896D01*
X68585031Y-53174540D01*
G37*
G36*
X85452821Y-61842881D02*
G01*
X86777689Y-61935525D01*
X86227617Y-69801937D01*
X85677543Y-77668349D01*
X84352674Y-77575705D01*
X83027804Y-77483061D01*
X83577877Y-69616649D01*
X84127951Y-61750237D01*
X85452821Y-61842881D01*
G37*
G36*
X96910166Y-80652124D02*
G01*
X98279802Y-80699564D01*
X98176624Y-82175071D01*
X98073447Y-83650578D01*
X97445236Y-83709801D01*
X96871863Y-83735046D01*
X96209981Y-83725574D01*
X96024042Y-83715405D01*
X95231059Y-83661786D01*
X95385795Y-82133235D01*
X95540531Y-80604685D01*
X96910166Y-80652124D01*
G37*
G36*
X74840014Y-75579167D02*
G01*
X76164884Y-75671810D01*
X76054870Y-77245094D01*
X75944855Y-78818376D01*
X77600942Y-78934181D01*
X79257028Y-79049986D01*
X79164384Y-80374855D01*
X79071740Y-81699724D01*
X77415654Y-81583919D01*
X75759567Y-81468114D01*
X75643762Y-83124202D01*
X75527958Y-84780288D01*
X74203088Y-84687644D01*
X72878219Y-84595000D01*
X72994024Y-82938914D01*
X73109828Y-81282827D01*
X71536546Y-81172813D01*
X69963263Y-81062797D01*
X70055907Y-79737927D01*
X70148551Y-78413059D01*
X71721834Y-78523074D01*
X73295117Y-78633088D01*
X73405131Y-77059806D01*
X73515145Y-75486523D01*
X74840014Y-75579167D01*
G37*
G36*
X102982837Y-87219748D02*
G01*
X102926963Y-87633921D01*
X102776466Y-87821792D01*
X102439017Y-87889080D01*
X102394903Y-87892954D01*
X102043730Y-87910600D01*
X101434443Y-87929072D01*
X100633826Y-87947416D01*
X99708666Y-87964679D01*
X98725749Y-87979907D01*
X97751860Y-87992146D01*
X96853784Y-88000442D01*
X96098309Y-88003843D01*
X95552218Y-88001396D01*
X95304993Y-87994180D01*
X95059419Y-87938083D01*
X94978430Y-87753190D01*
X95017227Y-87349644D01*
X95112053Y-86732206D01*
X98111646Y-86674143D01*
X99155730Y-86654316D01*
X100157485Y-86635985D01*
X101039901Y-86620509D01*
X101725964Y-86609244D01*
X102068965Y-86604337D01*
X103026693Y-86592594D01*
X102982837Y-87219748D01*
G37*
G36*
X76362643Y-53718403D02*
G01*
X77681514Y-53810628D01*
X77616004Y-55428626D01*
X77550493Y-57046626D01*
X79161864Y-57206935D01*
X80773233Y-57367244D01*
X80688728Y-58575710D01*
X80632322Y-59178989D01*
X80562317Y-59644071D01*
X80492899Y-59879152D01*
X80486098Y-59886862D01*
X80278685Y-59920768D01*
X79820474Y-59926433D01*
X79191468Y-59904119D01*
X78822291Y-59881464D01*
X77276610Y-59773379D01*
X77166596Y-61346661D01*
X77056578Y-62919943D01*
X75731712Y-62827299D01*
X74406843Y-62734656D01*
X74516857Y-61161374D01*
X74626872Y-59588091D01*
X73053589Y-59478077D01*
X71480306Y-59368062D01*
X71572950Y-58043192D01*
X71665594Y-56718322D01*
X73238878Y-56828337D01*
X74812160Y-56938352D01*
X74927965Y-55282266D01*
X75043769Y-53626179D01*
X76362643Y-53718403D01*
G37*
G36*
X101894030Y-88650608D02*
G01*
X102359422Y-88673523D01*
X102649268Y-88723322D01*
X102802688Y-88806709D01*
X102858803Y-88930392D01*
X102856730Y-89101076D01*
X102835660Y-89324488D01*
X102791289Y-89959024D01*
X99002966Y-89991947D01*
X97909313Y-90001802D01*
X96924681Y-90011340D01*
X96098371Y-90020031D01*
X95479684Y-90027341D01*
X95117919Y-90032740D01*
X95047544Y-90034625D01*
X94937814Y-89894779D01*
X94876337Y-89536108D01*
X94872376Y-89429068D01*
X94866997Y-89215107D01*
X94882434Y-89049754D01*
X94956581Y-88926184D01*
X95127334Y-88837574D01*
X95432588Y-88777096D01*
X95910238Y-88737928D01*
X96598179Y-88713245D01*
X97534307Y-88696221D01*
X98756518Y-88680031D01*
X99053375Y-88676095D01*
X100280126Y-88658600D01*
X101213971Y-88647869D01*
X101894030Y-88650608D01*
G37*
G36*
X102616739Y-90670284D02*
G01*
X102684322Y-90821584D01*
X102701955Y-91191067D01*
X102694743Y-91339691D01*
X102620555Y-91799315D01*
X102469784Y-91978855D01*
X102402728Y-91984946D01*
X102160275Y-91982215D01*
X101648013Y-91985496D01*
X100928094Y-91993774D01*
X100062656Y-92006042D01*
X99113847Y-92021289D01*
X98143813Y-92038505D01*
X97214697Y-92056678D01*
X96388646Y-92074800D01*
X95727804Y-92091859D01*
X95610721Y-92095370D01*
X94651732Y-92125144D01*
X94698629Y-91454486D01*
X94755701Y-91038480D01*
X94841740Y-90808967D01*
X94872453Y-90792703D01*
X95068367Y-90792320D01*
X95547338Y-90786347D01*
X96260456Y-90775550D01*
X97158809Y-90760686D01*
X98193491Y-90742517D01*
X98745894Y-90732445D01*
X99830151Y-90712831D01*
X100802321Y-90695996D01*
X101613540Y-90682725D01*
X102214943Y-90673801D01*
X102557664Y-90670010D01*
X102616739Y-90670284D01*
G37*
G36*
X99179828Y-49384399D02*
G01*
X99614592Y-49488402D01*
X100083535Y-49550212D01*
X100415706Y-49594341D01*
X100563377Y-49724861D01*
X100587580Y-50037905D01*
X100570732Y-50317630D01*
X100571195Y-50793238D01*
X100697124Y-51082627D01*
X101012221Y-51240172D01*
X101580185Y-51320249D01*
X101761410Y-51333996D01*
X102493104Y-51385161D01*
X102208728Y-55451927D01*
X101924352Y-59518693D01*
X100975651Y-59401350D01*
X100026951Y-59284006D01*
X99580981Y-65035862D01*
X99135010Y-70787719D01*
X98226309Y-70724176D01*
X97317607Y-70660634D01*
X97728715Y-64781526D01*
X98139822Y-58902418D01*
X97642996Y-58867677D01*
X97146169Y-58832935D01*
X97430811Y-54762364D01*
X97715453Y-50691793D01*
X98204649Y-50835656D01*
X98693844Y-50979518D01*
X98754018Y-50119002D01*
X98799433Y-49620642D01*
X98871616Y-49383648D01*
X99011351Y-49337661D01*
X99179828Y-49384399D01*
G37*
G36*
X102962396Y-84537217D02*
G01*
X103098198Y-84700505D01*
X103127440Y-85141010D01*
X103123221Y-85212171D01*
X103067925Y-85640400D01*
X102944688Y-85824966D01*
X102703862Y-85854518D01*
X102430376Y-85851553D01*
X101880447Y-85854793D01*
X101109592Y-85863576D01*
X100173323Y-85877242D01*
X99127157Y-85895129D01*
X98831409Y-85900627D01*
X97784985Y-85916437D01*
X96852129Y-85922948D01*
X96083442Y-85920429D01*
X95529530Y-85909146D01*
X95240994Y-85889371D01*
X95213150Y-85881422D01*
X95143544Y-85674187D01*
X95130897Y-85280879D01*
X95134156Y-85226164D01*
X95192469Y-84848413D01*
X95283461Y-84666186D01*
X95298348Y-84663036D01*
X95493800Y-84661843D01*
X95971767Y-84654755D01*
X96682807Y-84642629D01*
X97577477Y-84626325D01*
X98606337Y-84606700D01*
X99088970Y-84597232D01*
X100167431Y-84576620D01*
X101139273Y-84559424D01*
X101953591Y-84546432D01*
X102559474Y-84538431D01*
X102906018Y-84536211D01*
X102962396Y-84537217D01*
G37*
G36*
X55615228Y-43507765D02*
G01*
X56376881Y-43530604D01*
X57394925Y-43564909D01*
X58644260Y-43609644D01*
X60099777Y-43663769D01*
X61736375Y-43726244D01*
X63528950Y-43796033D01*
X65452395Y-43872096D01*
X67481608Y-43953397D01*
X69591483Y-44038894D01*
X71756918Y-44127549D01*
X73952808Y-44218324D01*
X76154047Y-44310181D01*
X78335533Y-44402081D01*
X80472160Y-44492985D01*
X82538825Y-44581854D01*
X84510422Y-44667652D01*
X86361849Y-44749336D01*
X88068000Y-44825872D01*
X89603772Y-44896218D01*
X90944060Y-44959337D01*
X92063760Y-45014190D01*
X92937767Y-45059738D01*
X93540977Y-45094944D01*
X93613192Y-45099718D01*
X94294594Y-45160620D01*
X95250764Y-45267325D01*
X96428667Y-45412850D01*
X97775266Y-45590203D01*
X99237526Y-45792401D01*
X100762413Y-46012455D01*
X102296892Y-46243380D01*
X102311634Y-46245648D01*
X108774023Y-47240036D01*
X108609065Y-49599045D01*
X108444107Y-51958053D01*
X110630218Y-52157357D01*
X112816329Y-52356659D01*
X113023984Y-54724043D01*
X113231640Y-57091427D01*
X112648542Y-61354528D01*
X112065446Y-65617629D01*
X111085883Y-65599755D01*
X110106322Y-65581880D01*
X110280217Y-64544907D01*
X110355375Y-64055200D01*
X110461503Y-63306685D01*
X110588990Y-62370090D01*
X110728218Y-61316141D01*
X110869576Y-60215567D01*
X110880869Y-60126196D01*
X111032746Y-58881355D01*
X111137966Y-57902114D01*
X111200365Y-57125908D01*
X111223781Y-56490168D01*
X111212046Y-55932332D01*
X111170408Y-55403516D01*
X111033189Y-54062574D01*
X109713126Y-53970265D01*
X108393065Y-53877958D01*
X107895205Y-60375069D01*
X107397347Y-66872180D01*
X110428549Y-67084142D01*
X113459750Y-67296104D01*
X114139035Y-68092487D01*
X114545879Y-68540654D01*
X114869026Y-68788655D01*
X115222254Y-68903247D01*
X115588072Y-68942696D01*
X116357824Y-68996523D01*
X116546804Y-67719995D01*
X116620454Y-67205211D01*
X116729282Y-66421423D01*
X116865094Y-65428810D01*
X117019694Y-64287543D01*
X117184884Y-63057806D01*
X117327022Y-61991512D01*
X117918261Y-57539557D01*
X117461489Y-56009849D01*
X117004715Y-54480143D01*
X115641808Y-54336504D01*
X114973712Y-54260715D01*
X114571386Y-54189574D01*
X114369970Y-54097335D01*
X114304599Y-53958252D01*
X114305934Y-53806242D01*
X114304075Y-53353474D01*
X114265654Y-52894854D01*
X114198337Y-52370089D01*
X116351684Y-52520666D01*
X118505031Y-52671243D01*
X119189265Y-55094669D01*
X119873499Y-57518095D01*
X118942329Y-64272021D01*
X118011159Y-71025948D01*
X116060532Y-70936445D01*
X114109904Y-70846943D01*
X113360031Y-70040330D01*
X112610159Y-69233716D01*
X109936193Y-69046734D01*
X107262226Y-68859752D01*
X107094309Y-71261077D01*
X106926391Y-73662404D01*
X109600358Y-73849386D01*
X112274324Y-74036368D01*
X113129159Y-73341966D01*
X113983992Y-72647565D01*
X115928094Y-72830408D01*
X117872194Y-73013252D01*
X117864768Y-79503052D01*
X117862323Y-80954507D01*
X117858531Y-82313961D01*
X117853614Y-83542779D01*
X117847790Y-84602331D01*
X117841279Y-85453982D01*
X117834300Y-86059100D01*
X117827073Y-86379052D01*
X117825523Y-86406675D01*
X117747959Y-86702588D01*
X117556560Y-87233293D01*
X117277190Y-87932378D01*
X116935720Y-88733426D01*
X116800195Y-89039276D01*
X115806684Y-91258057D01*
X113653384Y-91107484D01*
X111500083Y-90956910D01*
X111639778Y-90446621D01*
X111750980Y-89947641D01*
X111806508Y-89549709D01*
X111838679Y-89360737D01*
X111947764Y-89249540D01*
X112201579Y-89199654D01*
X112667938Y-89194610D01*
X113203178Y-89210525D01*
X114572812Y-89257964D01*
X115238035Y-87806715D01*
X115903257Y-86355466D01*
X115937364Y-81864552D01*
X115946272Y-80595840D01*
X115953574Y-79364764D01*
X115959011Y-78232060D01*
X115962325Y-77258457D01*
X115963256Y-76504688D01*
X115961989Y-76083233D01*
X115952506Y-74792827D01*
X115182754Y-74739000D01*
X114724741Y-74732398D01*
X114372243Y-74823222D01*
X114003300Y-75061748D01*
X113629494Y-75379269D01*
X112845985Y-76073364D01*
X109814784Y-75861401D01*
X106783582Y-75649440D01*
X106372371Y-82152610D01*
X105961162Y-88655779D01*
X107281224Y-88748087D01*
X108601289Y-88840395D01*
X108923793Y-87531598D01*
X109041150Y-87000639D01*
X109129756Y-86448598D01*
X109194518Y-85812976D01*
X109240345Y-85031289D01*
X109272147Y-84041043D01*
X109294342Y-82814584D01*
X109307873Y-81704407D01*
X109317049Y-80634894D01*
X109321547Y-79677425D01*
X109321044Y-78903374D01*
X109315218Y-78384121D01*
X109314501Y-78355282D01*
X109286617Y-77304198D01*
X110259133Y-77422826D01*
X111231650Y-77541454D01*
X111215764Y-81844219D01*
X111199877Y-86146983D01*
X110664767Y-88462428D01*
X110129657Y-90777871D01*
X107937083Y-90670987D01*
X105744510Y-90564101D01*
X105582940Y-92874661D01*
X105516985Y-93789785D01*
X105461078Y-94425969D01*
X105403256Y-94835569D01*
X105331559Y-95070937D01*
X105234025Y-95184434D01*
X105098696Y-95228412D01*
X105043333Y-95236643D01*
X104791615Y-95249789D01*
X104249398Y-95263636D01*
X103458209Y-95277607D01*
X102459574Y-95291121D01*
X101295016Y-95303596D01*
X100006063Y-95314453D01*
X99004761Y-95321055D01*
X97623143Y-95330034D01*
X96311031Y-95340313D01*
X95114749Y-95351395D01*
X94080624Y-95362786D01*
X93254977Y-95373991D01*
X92684134Y-95384514D01*
X92467951Y-95390910D01*
X91591677Y-95427775D01*
X91824618Y-92096521D01*
X92057565Y-88765265D01*
X93051217Y-88834748D01*
X94044869Y-88904230D01*
X93883031Y-91218611D01*
X93721194Y-93532992D01*
X94181801Y-93490716D01*
X94469108Y-93477574D01*
X95038522Y-93462546D01*
X95840140Y-93446544D01*
X96824055Y-93430469D01*
X97940361Y-93415239D01*
X98972434Y-93403463D01*
X100146206Y-93389396D01*
X101215400Y-93373006D01*
X102133614Y-93355296D01*
X102854448Y-93337263D01*
X103331506Y-93319907D01*
X103514175Y-93305666D01*
X103549684Y-93237168D01*
X103591305Y-93038703D01*
X103640150Y-92696244D01*
X103697331Y-92195763D01*
X103763961Y-91523233D01*
X103841149Y-90664627D01*
X103930010Y-89605920D01*
X104031655Y-88333082D01*
X104147196Y-86832090D01*
X104277746Y-85088914D01*
X104424414Y-83089529D01*
X104588316Y-80819907D01*
X104770560Y-78266021D01*
X104972262Y-75413844D01*
X105194531Y-72249348D01*
X105278040Y-71056086D01*
X105498968Y-67894622D01*
X105697453Y-65047882D01*
X105874427Y-62499390D01*
X106030821Y-60232666D01*
X106167566Y-58231233D01*
X106285594Y-56478615D01*
X106385835Y-54958334D01*
X106469220Y-53653910D01*
X106536681Y-52548866D01*
X106589148Y-51626726D01*
X106627554Y-50871010D01*
X106652829Y-50265241D01*
X106665903Y-49792942D01*
X106667709Y-49437635D01*
X106659178Y-49182841D01*
X106641241Y-49012085D01*
X106614827Y-48908888D01*
X106580869Y-48856769D01*
X106540299Y-48839255D01*
X106533515Y-48838581D01*
X106297038Y-48807714D01*
X105777816Y-48730953D01*
X105020894Y-48615258D01*
X104071322Y-48467588D01*
X102974144Y-48294899D01*
X101774408Y-48104153D01*
X101635475Y-48081945D01*
X99438902Y-47747528D01*
X97439835Y-47481919D01*
X95514404Y-47270512D01*
X93538737Y-47098695D01*
X92894279Y-47051013D01*
X92335144Y-47015414D01*
X91503193Y-46968418D01*
X90424385Y-46911195D01*
X89124675Y-46844913D01*
X87630021Y-46770743D01*
X85966381Y-46689853D01*
X84159708Y-46603414D01*
X82235962Y-46512595D01*
X80221098Y-46418564D01*
X78141074Y-46322490D01*
X76021846Y-46225546D01*
X73889373Y-46128898D01*
X71769607Y-46033717D01*
X69688510Y-45941172D01*
X67672036Y-45852432D01*
X65746141Y-45768667D01*
X63936784Y-45691047D01*
X62269921Y-45620739D01*
X60771509Y-45558915D01*
X59467503Y-45506744D01*
X58383863Y-45465394D01*
X57546543Y-45436035D01*
X56981502Y-45419837D01*
X56714694Y-45417968D01*
X56696852Y-45420246D01*
X56675701Y-45585032D01*
X56625679Y-46053464D01*
X56549439Y-46798662D01*
X56449639Y-47793747D01*
X56328934Y-49011840D01*
X56189982Y-50426060D01*
X56035438Y-52009527D01*
X55867958Y-53735363D01*
X55690198Y-55576688D01*
X55581925Y-56702700D01*
X55364856Y-58970313D01*
X55176998Y-60956199D01*
X55014940Y-62709051D01*
X54875274Y-64277562D01*
X54754587Y-65710426D01*
X54649473Y-67056332D01*
X54556519Y-68363975D01*
X54472316Y-69682049D01*
X54393455Y-71059245D01*
X54316526Y-72544257D01*
X54238118Y-74185777D01*
X54154823Y-76032498D01*
X54063228Y-78133114D01*
X54034481Y-78800111D01*
X53955353Y-80665419D01*
X53882633Y-82431703D01*
X53817320Y-84071218D01*
X53760416Y-85556209D01*
X53712919Y-86858931D01*
X53675832Y-87951630D01*
X53650153Y-88806556D01*
X53636883Y-89395961D01*
X53637020Y-89692092D01*
X53640856Y-89722025D01*
X53809337Y-89746640D01*
X54281484Y-89800937D01*
X55030521Y-89882236D01*
X56029670Y-89987860D01*
X57252152Y-90115131D01*
X58671192Y-90261370D01*
X60260008Y-90423900D01*
X61991829Y-90600041D01*
X63839864Y-90787116D01*
X65777348Y-90982446D01*
X67777497Y-91183352D01*
X69813535Y-91387159D01*
X71858684Y-91591185D01*
X73886165Y-91792753D01*
X75869201Y-91989185D01*
X77781014Y-92177802D01*
X79594825Y-92355928D01*
X81283858Y-92520883D01*
X82821334Y-92669987D01*
X84180474Y-92800566D01*
X85334503Y-92909938D01*
X86256640Y-92995426D01*
X86920108Y-93054351D01*
X87138270Y-93072371D01*
X88089921Y-93147537D01*
X89543272Y-72363648D01*
X90996623Y-51579760D01*
X89878283Y-51508473D01*
X89356571Y-51480010D01*
X88566041Y-51443425D01*
X87535855Y-51399709D01*
X86295173Y-51349858D01*
X84873153Y-51294862D01*
X83298959Y-51235719D01*
X81601750Y-51173421D01*
X79810687Y-51108962D01*
X77954930Y-51043335D01*
X76063640Y-50977534D01*
X74165978Y-50912554D01*
X72291103Y-50849387D01*
X70468178Y-50789029D01*
X68726362Y-50732470D01*
X67094816Y-50680708D01*
X65602700Y-50634735D01*
X64279175Y-50595544D01*
X63153402Y-50564131D01*
X62254541Y-50541486D01*
X61611753Y-50528607D01*
X61254198Y-50526486D01*
X61188746Y-50530754D01*
X61153175Y-50707598D01*
X61087433Y-51184117D01*
X60995024Y-51929673D01*
X60879452Y-52913627D01*
X60744222Y-54105340D01*
X60592837Y-55474172D01*
X60428801Y-56989487D01*
X60255618Y-58620645D01*
X60169261Y-59445427D01*
X59964495Y-61416812D01*
X59791177Y-63111802D01*
X59645550Y-64584156D01*
X59523862Y-65887634D01*
X59422359Y-67075996D01*
X59337288Y-68202998D01*
X59264893Y-69322404D01*
X59201421Y-70487972D01*
X59143120Y-71753461D01*
X59086235Y-73172630D01*
X59027011Y-74799241D01*
X58961695Y-76687051D01*
X58958195Y-76789469D01*
X58902966Y-78437930D01*
X58853286Y-79983708D01*
X58810013Y-81395491D01*
X58774006Y-82641963D01*
X58746130Y-83691813D01*
X58727237Y-84513722D01*
X58718189Y-85076382D01*
X58719845Y-85348477D01*
X58722746Y-85369033D01*
X58892594Y-85397311D01*
X59366699Y-85459131D01*
X60119308Y-85551495D01*
X61124673Y-85671404D01*
X62357039Y-85815859D01*
X63790655Y-85981861D01*
X65399769Y-86166415D01*
X67158628Y-86366518D01*
X69041482Y-86579174D01*
X71022578Y-86801384D01*
X71067563Y-86806412D01*
X73050676Y-87028866D01*
X74936205Y-87241940D01*
X76698386Y-87442626D01*
X78311459Y-87627916D01*
X79749660Y-87794802D01*
X80987224Y-87940276D01*
X81998392Y-88061331D01*
X82757399Y-88154957D01*
X83238483Y-88218150D01*
X83415880Y-88247899D01*
X83416173Y-88248152D01*
X83419866Y-88435266D01*
X83366026Y-88843367D01*
X83303572Y-89190652D01*
X83131694Y-90064963D01*
X82024762Y-89936437D01*
X81679347Y-89897166D01*
X81032927Y-89824523D01*
X80114497Y-89721742D01*
X78953057Y-89592054D01*
X77577600Y-89438690D01*
X76017126Y-89264881D01*
X74300631Y-89073860D01*
X72457110Y-88868858D01*
X70515562Y-88653106D01*
X68790496Y-88461536D01*
X66821785Y-88242472D01*
X64951602Y-88033429D01*
X63205784Y-87837342D01*
X61610176Y-87657157D01*
X60190617Y-87495828D01*
X58972948Y-87356298D01*
X57983011Y-87241515D01*
X57246648Y-87154429D01*
X56789698Y-87097986D01*
X56637892Y-87075375D01*
X56639524Y-86906933D01*
X56653226Y-86436353D01*
X56677931Y-85693267D01*
X56712565Y-84707304D01*
X56756058Y-83508091D01*
X56807341Y-82125260D01*
X56865340Y-80588440D01*
X56928985Y-78927260D01*
X56980047Y-77610679D01*
X57059982Y-75581356D01*
X57132333Y-73816467D01*
X57200759Y-72263666D01*
X57268919Y-70870599D01*
X57340473Y-69584921D01*
X57419080Y-68354280D01*
X57508399Y-67126328D01*
X57612089Y-65848715D01*
X57733811Y-64469090D01*
X57877221Y-62935106D01*
X58045981Y-61194412D01*
X58243749Y-59194660D01*
X58322873Y-58400038D01*
X58500152Y-56633085D01*
X58669639Y-54966143D01*
X58828229Y-53428251D01*
X58972823Y-52048453D01*
X59100315Y-50855792D01*
X59207607Y-49879312D01*
X59291593Y-49148056D01*
X59349172Y-48691066D01*
X59376361Y-48537602D01*
X59546526Y-48534914D01*
X60021198Y-48543530D01*
X60773089Y-48562509D01*
X61774904Y-48590906D01*
X62999355Y-48627777D01*
X64419147Y-48672176D01*
X66006992Y-48723163D01*
X67735597Y-48779790D01*
X69577670Y-48841115D01*
X71505921Y-48906191D01*
X73493057Y-48974078D01*
X75511787Y-49043831D01*
X77534821Y-49114499D01*
X79534867Y-49185147D01*
X81484631Y-49254826D01*
X83356825Y-49322593D01*
X85124156Y-49387505D01*
X86759332Y-49448615D01*
X88235063Y-49504982D01*
X89524057Y-49555658D01*
X90599023Y-49599703D01*
X91432668Y-49636171D01*
X91997702Y-49664117D01*
X92087124Y-49669259D01*
X93122892Y-49731422D01*
X91528843Y-72527381D01*
X89934795Y-95323339D01*
X87830337Y-95074837D01*
X87371069Y-95024150D01*
X86606804Y-94944217D01*
X85563043Y-94837565D01*
X84265293Y-94706721D01*
X82739055Y-94554211D01*
X81009835Y-94382562D01*
X79103137Y-94194302D01*
X77044464Y-93991957D01*
X74859320Y-93778055D01*
X72573209Y-93555123D01*
X70211636Y-93325687D01*
X68668108Y-93176187D01*
X51610337Y-91526040D01*
X51593665Y-90519312D01*
X51598680Y-90184698D01*
X51618636Y-89548399D01*
X51652262Y-88640360D01*
X51698287Y-87490526D01*
X51755443Y-86128842D01*
X51822458Y-84585254D01*
X51898062Y-82889705D01*
X51980987Y-81072142D01*
X52069963Y-79162510D01*
X52121778Y-78067806D01*
X52233322Y-75743284D01*
X52334299Y-73695479D01*
X52428376Y-71873353D01*
X52519213Y-70225865D01*
X52610475Y-68701978D01*
X52705824Y-67250654D01*
X52808922Y-65820855D01*
X52923432Y-64361541D01*
X53053018Y-62821675D01*
X53201342Y-61150219D01*
X53372065Y-59296134D01*
X53568852Y-57208382D01*
X53770062Y-55100067D01*
X53955164Y-53178966D01*
X54133002Y-51355971D01*
X54300828Y-49657820D01*
X54455899Y-48111248D01*
X54595465Y-46742993D01*
X54716783Y-45579790D01*
X54817103Y-44648378D01*
X54893684Y-43975490D01*
X54943773Y-43587866D01*
X54961521Y-43500646D01*
X55135073Y-43497434D01*
X55615228Y-43507765D01*
G37*
G36*
X227583704Y-67401008D02*
G01*
X228133776Y-75267418D01*
X226808906Y-75360064D01*
X225484038Y-75452708D01*
X224933964Y-67586296D01*
X224383891Y-59719884D01*
X225708760Y-59627240D01*
X227033630Y-59534596D01*
X227583704Y-67401008D01*
G37*
G36*
X244196722Y-55089276D02*
G01*
X244515185Y-59643515D01*
X243190315Y-59736159D01*
X241865445Y-59828803D01*
X241546982Y-55274564D01*
X241228519Y-50720326D01*
X242553388Y-50627682D01*
X243878258Y-50535038D01*
X244196722Y-55089276D01*
G37*
G36*
X245725346Y-76949621D02*
G01*
X246043809Y-81503859D01*
X244718939Y-81596503D01*
X243394070Y-81689147D01*
X243075606Y-77134909D01*
X242757143Y-72580670D01*
X244082013Y-72488026D01*
X245406882Y-72395382D01*
X245725346Y-76949621D01*
G37*
G36*
X214148727Y-56649577D02*
G01*
X214208230Y-58184787D01*
X212845322Y-58328426D01*
X211482413Y-58472064D01*
X211379236Y-56996557D01*
X211276058Y-55521050D01*
X211889913Y-55374973D01*
X212454193Y-55270176D01*
X213110951Y-55187437D01*
X213296496Y-55171632D01*
X214089224Y-55114367D01*
X214148727Y-56649577D01*
G37*
G36*
X236210454Y-52735407D02*
G01*
X236326260Y-54391494D01*
X237899542Y-54281479D01*
X239472825Y-54171465D01*
X239565469Y-55496335D01*
X239658113Y-56821203D01*
X238084830Y-56931218D01*
X236511547Y-57041233D01*
X236621562Y-58614515D01*
X236731577Y-60187798D01*
X235406708Y-60280442D01*
X234081838Y-60373086D01*
X233971823Y-58799803D01*
X233861809Y-57226521D01*
X232205722Y-57342325D01*
X230549636Y-57458130D01*
X230456992Y-56133261D01*
X230364348Y-54808392D01*
X232020434Y-54692587D01*
X233676521Y-54576782D01*
X233560716Y-52920694D01*
X233444911Y-51264609D01*
X234769781Y-51171965D01*
X236094650Y-51079321D01*
X236210454Y-52735407D01*
G37*
G36*
X213664048Y-50855799D02*
G01*
X213769981Y-51027621D01*
X213787725Y-51432639D01*
X213779752Y-52057266D01*
X210817432Y-52532226D01*
X209786268Y-52697169D01*
X208796813Y-52854739D01*
X207925139Y-52992873D01*
X207247320Y-53099508D01*
X206908340Y-53152105D01*
X205961567Y-53297024D01*
X205917713Y-52669870D01*
X205915402Y-52251951D01*
X206038288Y-52044964D01*
X206363088Y-51931367D01*
X206406233Y-51921391D01*
X206751533Y-51855043D01*
X207352320Y-51751954D01*
X208142592Y-51622364D01*
X209056346Y-51476512D01*
X210027578Y-51324637D01*
X210990286Y-51176978D01*
X211878467Y-51043774D01*
X212626117Y-50935265D01*
X213167234Y-50861687D01*
X213413057Y-50834425D01*
X213664048Y-50855799D01*
G37*
G36*
X213512150Y-48901221D02*
G01*
X213622946Y-49247846D01*
X213641766Y-49353291D01*
X213676870Y-49564423D01*
X213684596Y-49730315D01*
X213628368Y-49863002D01*
X213471609Y-49974514D01*
X213177743Y-50076886D01*
X212710193Y-50182149D01*
X212032382Y-50302335D01*
X211107733Y-50449477D01*
X209899670Y-50635608D01*
X209606250Y-50680821D01*
X208393872Y-50868876D01*
X207470609Y-51009469D01*
X206796787Y-51101402D01*
X206332735Y-51143480D01*
X206038779Y-51134505D01*
X205875247Y-51073281D01*
X205802465Y-50958612D01*
X205780763Y-50789300D01*
X205770535Y-50565130D01*
X205726164Y-49930594D01*
X209473037Y-49370759D01*
X210554675Y-49208793D01*
X211528397Y-49062313D01*
X212345456Y-48938707D01*
X212957105Y-48845363D01*
X213314598Y-48789669D01*
X213384026Y-48778008D01*
X213512150Y-48901221D01*
G37*
G36*
X237733289Y-74512947D02*
G01*
X237843303Y-76086230D01*
X239416586Y-75976215D01*
X240989869Y-75866200D01*
X241082513Y-77191070D01*
X241175157Y-78515940D01*
X239601873Y-78625955D01*
X238028591Y-78735969D01*
X238144396Y-80392055D01*
X238260201Y-82048142D01*
X236941328Y-82140367D01*
X235622456Y-82232591D01*
X235462147Y-80621222D01*
X235301839Y-79009851D01*
X233683839Y-79075362D01*
X232065841Y-79140872D01*
X231981337Y-77932406D01*
X231953234Y-77327148D01*
X231957831Y-76856849D01*
X231993856Y-76614395D01*
X231999521Y-76605813D01*
X232200194Y-76543371D01*
X232653157Y-76473990D01*
X233279147Y-76408546D01*
X233647884Y-76379601D01*
X235193565Y-76271517D01*
X235083550Y-74698235D01*
X234973537Y-73124953D01*
X236298405Y-73032310D01*
X237623274Y-72939665D01*
X237733289Y-74512947D01*
G37*
G36*
X213531938Y-47323405D02*
G01*
X213533319Y-47743305D01*
X213480059Y-47982559D01*
X213451908Y-48002939D01*
X213257954Y-48030585D01*
X212784476Y-48103159D01*
X212079801Y-48213098D01*
X211192259Y-48352844D01*
X210170175Y-48514836D01*
X209624548Y-48601690D01*
X208553574Y-48772012D01*
X207593209Y-48923983D01*
X206791731Y-49050025D01*
X206197423Y-49142561D01*
X205858565Y-49194013D01*
X205800027Y-49201963D01*
X205712045Y-49061541D01*
X205643161Y-48698108D01*
X205629618Y-48549927D01*
X205639117Y-48084451D01*
X205763434Y-47885675D01*
X205828989Y-47870311D01*
X206069463Y-47839272D01*
X206576282Y-47764730D01*
X207288044Y-47656339D01*
X208143352Y-47523745D01*
X209080805Y-47376598D01*
X210039003Y-47224547D01*
X210956548Y-47077243D01*
X211772038Y-46944333D01*
X212424074Y-46835468D01*
X212539532Y-46815697D01*
X213485041Y-46652747D01*
X213531938Y-47323405D01*
G37*
G36*
X214243500Y-74158492D02*
G01*
X214654607Y-80037600D01*
X215151433Y-80002858D01*
X215648260Y-79968117D01*
X215932902Y-84038688D01*
X216217544Y-88109259D01*
X215713087Y-88034879D01*
X215208631Y-87960500D01*
X215268804Y-88821016D01*
X215293189Y-89320847D01*
X215254692Y-89565580D01*
X215122717Y-89630567D01*
X214949375Y-89607731D01*
X214504367Y-89565248D01*
X214031386Y-89569304D01*
X213696306Y-89571833D01*
X213531907Y-89463135D01*
X213464372Y-89156506D01*
X213442126Y-88877159D01*
X213375476Y-88406244D01*
X213210497Y-88137197D01*
X212876541Y-88025038D01*
X212302959Y-88024786D01*
X212121585Y-88036394D01*
X211389891Y-88087559D01*
X211105515Y-84020793D01*
X210821139Y-79954027D01*
X211776935Y-79938195D01*
X212732737Y-79922363D01*
X212373863Y-74164417D01*
X212014990Y-68406469D01*
X212923691Y-68342927D01*
X213832393Y-68279384D01*
X214243500Y-74158492D01*
G37*
G36*
X213798045Y-52913840D02*
G01*
X213895815Y-53109371D01*
X213963077Y-53497091D01*
X213967465Y-53551727D01*
X213962292Y-53933918D01*
X213897547Y-54127035D01*
X213883243Y-54132226D01*
X213689859Y-54160609D01*
X213217530Y-54234148D01*
X212515098Y-54345114D01*
X211631404Y-54485773D01*
X210615288Y-54648397D01*
X210138669Y-54724942D01*
X209073572Y-54895446D01*
X208113581Y-55047729D01*
X207308997Y-55173926D01*
X206710123Y-55266172D01*
X206367261Y-55316600D01*
X206311292Y-55323450D01*
X206154086Y-55180651D01*
X206063822Y-54748503D01*
X206058096Y-54677447D01*
X206053256Y-54245690D01*
X206149607Y-54045769D01*
X206383977Y-53982988D01*
X206655214Y-53947862D01*
X207199340Y-53868118D01*
X207961471Y-53752138D01*
X208886726Y-53608302D01*
X209920222Y-53444991D01*
X210212326Y-53398386D01*
X211246366Y-53237096D01*
X212169237Y-53100820D01*
X212930794Y-52996334D01*
X213480886Y-52930417D01*
X213769366Y-52909843D01*
X213798045Y-52913840D01*
G37*
G36*
X256347558Y-42250427D02*
G01*
X256389162Y-42582482D01*
X256457956Y-43215366D01*
X256551030Y-44119248D01*
X256665481Y-45264297D01*
X256798391Y-46620684D01*
X256946854Y-48158577D01*
X257107960Y-49848147D01*
X257278798Y-51659562D01*
X257456458Y-53562993D01*
X257557500Y-54654255D01*
X257770553Y-56971678D01*
X257955558Y-59013608D01*
X258115987Y-60831094D01*
X258255320Y-62475191D01*
X258377031Y-63996948D01*
X258484595Y-65447418D01*
X258581490Y-66877651D01*
X258671191Y-68338700D01*
X258757174Y-69881615D01*
X258842915Y-71557447D01*
X258931893Y-73417248D01*
X259027580Y-75512070D01*
X259121749Y-77627870D01*
X259205814Y-79556036D01*
X259283418Y-81386040D01*
X259353562Y-83091022D01*
X259415242Y-84644124D01*
X259467458Y-86018487D01*
X259509208Y-87187254D01*
X259539491Y-88123564D01*
X259557304Y-88800561D01*
X259561649Y-89191384D01*
X259556211Y-89280225D01*
X259384796Y-89307560D01*
X258907876Y-89364154D01*
X258150457Y-89447539D01*
X257137546Y-89555252D01*
X255894144Y-89684826D01*
X254445259Y-89833797D01*
X252815893Y-89999700D01*
X251031050Y-90180068D01*
X249115739Y-90372438D01*
X247094959Y-90574340D01*
X244993718Y-90783313D01*
X242837019Y-90996891D01*
X240649866Y-91212608D01*
X238457265Y-91427998D01*
X236284219Y-91640597D01*
X234155734Y-91847938D01*
X232096814Y-92047558D01*
X230132463Y-92236989D01*
X228287686Y-92413768D01*
X226587487Y-92575427D01*
X225056871Y-92719504D01*
X223720842Y-92843532D01*
X222604405Y-92945044D01*
X221732565Y-93021578D01*
X221130325Y-93070665D01*
X221058149Y-93075988D01*
X220374902Y-93110512D01*
X219413187Y-93137918D01*
X218226494Y-93157742D01*
X216868318Y-93169525D01*
X215392148Y-93172802D01*
X213851475Y-93167113D01*
X212299791Y-93151994D01*
X212284877Y-93151799D01*
X205746987Y-93066479D01*
X205582029Y-90707470D01*
X205417072Y-88348462D01*
X203224498Y-88455346D01*
X201031924Y-88562231D01*
X200496814Y-86246786D01*
X199961703Y-83931342D01*
X199945817Y-79628577D01*
X199929930Y-75325813D01*
X200902447Y-75207185D01*
X201874963Y-75088557D01*
X201847079Y-76139640D01*
X201840806Y-76635041D01*
X201839884Y-77391042D01*
X201843987Y-78336265D01*
X201852795Y-79399333D01*
X201865983Y-80508870D01*
X201867238Y-80598943D01*
X201890088Y-81852806D01*
X201922176Y-82837161D01*
X201968411Y-83614498D01*
X202033701Y-84247309D01*
X202122957Y-84798083D01*
X202237787Y-85315958D01*
X202560294Y-86624753D01*
X203880357Y-86532446D01*
X205200418Y-86440138D01*
X204789209Y-79936968D01*
X204377999Y-73433798D01*
X201346797Y-73645760D01*
X198315596Y-73857723D01*
X197532087Y-73163628D01*
X197066830Y-72776445D01*
X196712312Y-72575831D01*
X196346574Y-72511514D01*
X195978826Y-72523361D01*
X195209074Y-72577186D01*
X195199591Y-73867592D01*
X195198302Y-74387616D01*
X195199615Y-75178922D01*
X195203270Y-76180777D01*
X195209007Y-77332453D01*
X195216572Y-78573212D01*
X195224220Y-79648911D01*
X195258324Y-84139825D01*
X195923545Y-85591075D01*
X196588768Y-87042324D01*
X197958402Y-86994885D01*
X198630544Y-86976955D01*
X199038855Y-86991411D01*
X199251148Y-87054720D01*
X199335240Y-87183352D01*
X199355073Y-87334068D01*
X199419927Y-87782171D01*
X199521802Y-88230980D01*
X199661497Y-88741270D01*
X197508150Y-88891847D01*
X195354803Y-89042423D01*
X194339952Y-86737809D01*
X193325101Y-84433194D01*
X193307246Y-77615403D01*
X193289387Y-70797611D01*
X195233487Y-70614768D01*
X197177588Y-70431924D01*
X198032422Y-71126325D01*
X198887256Y-71820727D01*
X201561222Y-71633745D01*
X204235189Y-71446764D01*
X204067272Y-69045439D01*
X203899355Y-66644111D01*
X201225388Y-66831093D01*
X198551422Y-67018075D01*
X197801549Y-67824689D01*
X197051677Y-68631302D01*
X195101048Y-68720805D01*
X193150421Y-68810307D01*
X192254569Y-62382632D01*
X192054987Y-60944962D01*
X191869542Y-59598211D01*
X191703393Y-58380667D01*
X191561699Y-57330616D01*
X191449620Y-56486347D01*
X191372315Y-55886147D01*
X191334943Y-55568303D01*
X191332633Y-55540733D01*
X191368259Y-55236905D01*
X191483936Y-54684727D01*
X191663293Y-53953565D01*
X191889956Y-53112789D01*
X191981596Y-52791054D01*
X192656643Y-50455596D01*
X194809943Y-50305022D01*
X196963244Y-50154449D01*
X196895927Y-50679214D01*
X196855252Y-51188814D01*
X196855646Y-51590602D01*
X196850088Y-51782212D01*
X196757540Y-51907508D01*
X196513138Y-51992233D01*
X196052019Y-52062133D01*
X195519773Y-52120864D01*
X194156866Y-52264502D01*
X193700092Y-53794209D01*
X193243319Y-55323916D01*
X193834558Y-59775871D01*
X194002307Y-61033476D01*
X194166409Y-62253587D01*
X194318668Y-63376025D01*
X194450885Y-64340614D01*
X194554867Y-65087177D01*
X194614777Y-65504354D01*
X194803757Y-66780882D01*
X195573510Y-66727056D01*
X196027984Y-66669851D01*
X196364411Y-66530853D01*
X196696567Y-66243301D01*
X197022545Y-65876846D01*
X197701830Y-65080463D01*
X200733031Y-64868501D01*
X203764233Y-64656538D01*
X203266375Y-58159426D01*
X202768516Y-51662317D01*
X201448454Y-51754624D01*
X200128391Y-51846932D01*
X199991173Y-53187876D01*
X199948853Y-53729999D01*
X199937939Y-54289001D01*
X199962269Y-54927450D01*
X200025678Y-55707908D01*
X200132001Y-56692943D01*
X200280712Y-57910555D01*
X200421819Y-59011811D01*
X200561580Y-60072192D01*
X200690380Y-61020969D01*
X200798605Y-61787417D01*
X200876640Y-62300806D01*
X200881364Y-62329265D01*
X201055259Y-63366239D01*
X200075698Y-63384114D01*
X199096135Y-63401988D01*
X198513038Y-59138887D01*
X197929941Y-54875786D01*
X198137596Y-52508402D01*
X198345251Y-50141019D01*
X200531362Y-49941716D01*
X202717473Y-49742414D01*
X202555903Y-47431855D01*
X202493855Y-46516457D01*
X202460678Y-45878684D01*
X202460932Y-45465023D01*
X202499175Y-45221967D01*
X202579967Y-45096000D01*
X202707855Y-45033616D01*
X202761534Y-45017760D01*
X203008973Y-44969710D01*
X203543986Y-44880536D01*
X204325530Y-44756588D01*
X205312566Y-44604223D01*
X206464054Y-44429794D01*
X207738952Y-44239655D01*
X208729591Y-44093763D01*
X210096514Y-43892587D01*
X211394426Y-43699798D01*
X212577523Y-43522333D01*
X213599999Y-43367131D01*
X214416051Y-43241127D01*
X214979874Y-43151260D01*
X215193063Y-43114840D01*
X216055679Y-42956380D01*
X216288624Y-46287634D01*
X216521567Y-49618890D01*
X215527915Y-49688373D01*
X214534263Y-49757856D01*
X214372427Y-47443475D01*
X214210589Y-45129097D01*
X213760348Y-45235063D01*
X213477666Y-45288063D01*
X212915885Y-45382191D01*
X212124296Y-45509603D01*
X211152193Y-45662454D01*
X210048871Y-45832896D01*
X209028481Y-45988194D01*
X207868089Y-46165479D01*
X206811582Y-46330515D01*
X205904769Y-46475844D01*
X205193459Y-46594022D01*
X204723460Y-46677603D01*
X204544550Y-46717128D01*
X204518920Y-46789901D01*
X204505325Y-46992227D01*
X204504616Y-47338151D01*
X204517645Y-47841719D01*
X204545262Y-48516978D01*
X204588320Y-49377970D01*
X204647667Y-50438741D01*
X204724156Y-51713339D01*
X204818637Y-53215803D01*
X204931961Y-54960183D01*
X205064981Y-56960523D01*
X205218545Y-59230868D01*
X205393506Y-61785263D01*
X205590714Y-64637754D01*
X205811020Y-67802385D01*
X205894394Y-68995659D01*
X206115607Y-72157103D01*
X206315243Y-75003762D01*
X206494673Y-77552083D01*
X206655268Y-79818513D01*
X206798399Y-81819499D01*
X206925437Y-83571487D01*
X207037754Y-85090924D01*
X207136721Y-86394258D01*
X207223709Y-87497937D01*
X207300090Y-88418405D01*
X207367233Y-89172111D01*
X207426511Y-89775502D01*
X207479295Y-90245024D01*
X207526956Y-90597125D01*
X207570865Y-90848252D01*
X207612392Y-91014850D01*
X207652911Y-91113367D01*
X207693792Y-91160252D01*
X207736405Y-91171950D01*
X207743216Y-91171673D01*
X207981688Y-91169328D01*
X208506540Y-91173080D01*
X209272197Y-91182306D01*
X210233080Y-91196384D01*
X211343614Y-91214695D01*
X212558221Y-91236614D01*
X212698895Y-91239270D01*
X214920630Y-91264729D01*
X216937208Y-91249536D01*
X218873323Y-91190918D01*
X220853675Y-91086103D01*
X221498498Y-91043630D01*
X222057146Y-91001066D01*
X222887541Y-90931819D01*
X223963814Y-90838344D01*
X225260103Y-90723096D01*
X226750530Y-90588529D01*
X228409238Y-90437098D01*
X230210358Y-90271255D01*
X232128022Y-90093457D01*
X234136364Y-89906158D01*
X236209516Y-89711813D01*
X238321612Y-89512874D01*
X240446783Y-89311799D01*
X242559166Y-89111039D01*
X244632890Y-88913051D01*
X246642090Y-88720288D01*
X248560900Y-88535205D01*
X250363451Y-88360256D01*
X252023877Y-88197897D01*
X253516311Y-88050581D01*
X254814887Y-87920762D01*
X255893736Y-87810896D01*
X256726993Y-87723437D01*
X257288790Y-87660839D01*
X257553261Y-87625557D01*
X257570613Y-87620818D01*
X257568624Y-87454692D01*
X257552966Y-86983857D01*
X257524753Y-86235301D01*
X257485092Y-85236010D01*
X257435097Y-84012973D01*
X257375875Y-82593178D01*
X257308539Y-81003612D01*
X257234199Y-79271263D01*
X257153966Y-77423119D01*
X257104475Y-76292996D01*
X257003841Y-74017241D01*
X256913489Y-72024537D01*
X256830020Y-70266189D01*
X256750032Y-68693505D01*
X256670128Y-67257790D01*
X256586906Y-65910353D01*
X256496966Y-64602499D01*
X256396909Y-63285534D01*
X256283334Y-61910765D01*
X256152841Y-60429499D01*
X256002030Y-58793041D01*
X255827501Y-56952700D01*
X255625855Y-54859780D01*
X255561494Y-54195273D01*
X255380252Y-52337106D01*
X255206445Y-50577890D01*
X255042946Y-48945241D01*
X254892625Y-47466782D01*
X254758356Y-46170128D01*
X254643008Y-45082902D01*
X254549454Y-44232722D01*
X254480566Y-43647206D01*
X254439217Y-43353976D01*
X254431252Y-43324868D01*
X254260985Y-43323941D01*
X253785876Y-43335883D01*
X253032814Y-43359621D01*
X252028689Y-43394079D01*
X250800391Y-43438183D01*
X249374809Y-43490860D01*
X247778835Y-43551032D01*
X246039356Y-43617628D01*
X244183268Y-43689570D01*
X242237455Y-43765787D01*
X240228810Y-43845203D01*
X238184223Y-43926741D01*
X236130582Y-44009331D01*
X234094779Y-44091895D01*
X232103704Y-44173360D01*
X230184246Y-44252651D01*
X228363297Y-44328693D01*
X226667744Y-44400411D01*
X225124479Y-44466733D01*
X223760393Y-44526581D01*
X222602374Y-44578883D01*
X221677313Y-44622564D01*
X221012101Y-44656549D01*
X220793554Y-44669067D01*
X219840704Y-44727076D01*
X221294055Y-65510965D01*
X222747406Y-86294853D01*
X223864784Y-86209804D01*
X224385380Y-86165382D01*
X225173308Y-86091590D01*
X226199552Y-85991506D01*
X227435098Y-85868203D01*
X228850933Y-85724756D01*
X230418038Y-85564238D01*
X232107400Y-85389724D01*
X233890004Y-85204288D01*
X235736834Y-85011005D01*
X237618876Y-84812949D01*
X239507113Y-84613193D01*
X241372533Y-84414813D01*
X243186118Y-84220882D01*
X244918854Y-84034476D01*
X246541726Y-83858667D01*
X248025719Y-83696530D01*
X249341818Y-83551141D01*
X250461007Y-83425571D01*
X251354272Y-83322898D01*
X251992597Y-83246193D01*
X252346967Y-83198531D01*
X252411188Y-83185196D01*
X252421801Y-83005122D01*
X252420585Y-82524091D01*
X252408333Y-81772930D01*
X252385840Y-80782467D01*
X252353900Y-79583532D01*
X252313307Y-78206952D01*
X252264856Y-76683555D01*
X252209340Y-75044169D01*
X252180069Y-74215395D01*
X252108478Y-72234697D01*
X252044213Y-70532082D01*
X251983510Y-69053789D01*
X251922605Y-67746061D01*
X251857732Y-66555137D01*
X251785127Y-65427264D01*
X251701026Y-64308676D01*
X251601665Y-63145618D01*
X251483276Y-61884331D01*
X251342098Y-60471056D01*
X251174365Y-58852033D01*
X250976313Y-56973505D01*
X250965525Y-56871596D01*
X250790795Y-55231491D01*
X250624861Y-53693843D01*
X250471230Y-52289777D01*
X250333410Y-51050424D01*
X250214905Y-50006913D01*
X250119227Y-49190372D01*
X250049880Y-48631928D01*
X250010372Y-48362712D01*
X250004638Y-48342760D01*
X249832507Y-48338395D01*
X249354413Y-48343160D01*
X248596274Y-48356437D01*
X247584004Y-48377615D01*
X246343528Y-48406078D01*
X244900760Y-48441212D01*
X243281621Y-48482400D01*
X241512030Y-48529030D01*
X239617904Y-48580486D01*
X237625165Y-48636154D01*
X237579915Y-48637436D01*
X235585142Y-48693143D01*
X233688309Y-48744554D01*
X231915347Y-48791072D01*
X230292185Y-48832082D01*
X228844755Y-48866979D01*
X227598988Y-48895156D01*
X226580813Y-48916007D01*
X225816163Y-48928925D01*
X225330966Y-48933301D01*
X225151155Y-48928531D01*
X225150830Y-48928321D01*
X225121131Y-48743542D01*
X225117651Y-48331919D01*
X225131164Y-47979322D01*
X225179689Y-47089599D01*
X226293736Y-47062819D01*
X226641255Y-47053636D01*
X227291494Y-47035607D01*
X228215290Y-47009567D01*
X229383476Y-46976352D01*
X230766891Y-46936797D01*
X232336368Y-46891738D01*
X234062744Y-46842010D01*
X235916854Y-46788449D01*
X237869534Y-46731890D01*
X239604474Y-46681515D01*
X241584513Y-46624451D01*
X243465589Y-46571183D01*
X245221706Y-46522390D01*
X246826863Y-46478756D01*
X248255060Y-46440951D01*
X249480297Y-46409656D01*
X250476575Y-46385549D01*
X251217892Y-46369306D01*
X251678250Y-46361605D01*
X251831725Y-46362868D01*
X251853552Y-46529898D01*
X251905475Y-46997805D01*
X251984428Y-47737098D01*
X252087351Y-48718286D01*
X252211179Y-49911881D01*
X252352848Y-51288392D01*
X252509298Y-52818327D01*
X252677464Y-54472199D01*
X252810131Y-55783073D01*
X253013401Y-57803772D01*
X253187380Y-59561554D01*
X253335728Y-61108767D01*
X253462108Y-62497762D01*
X253570183Y-63780887D01*
X253663613Y-65010491D01*
X253746061Y-66238924D01*
X253821189Y-67518534D01*
X253892659Y-68901673D01*
X253964134Y-70440687D01*
X254039274Y-72187928D01*
X254121742Y-74195742D01*
X254153978Y-74993643D01*
X254224337Y-76768075D01*
X254288493Y-78442380D01*
X254345479Y-79987377D01*
X254394323Y-81373870D01*
X254434058Y-82572668D01*
X254463710Y-83554577D01*
X254482313Y-84290405D01*
X254488895Y-84750961D01*
X254483328Y-84906715D01*
X254315194Y-84933060D01*
X253843942Y-84990589D01*
X253096727Y-85076438D01*
X252100709Y-85187743D01*
X250883043Y-85321641D01*
X249470889Y-85475271D01*
X247891401Y-85645766D01*
X246171738Y-85830265D01*
X244339057Y-86025904D01*
X242420515Y-86229822D01*
X240443269Y-86439152D01*
X238434478Y-86651032D01*
X236421297Y-86862602D01*
X234430883Y-87070994D01*
X232490396Y-87273348D01*
X230626991Y-87466799D01*
X228867826Y-87648484D01*
X227240058Y-87815541D01*
X225770844Y-87965105D01*
X224487342Y-88094315D01*
X223416707Y-88200305D01*
X222586100Y-88280213D01*
X222022675Y-88331177D01*
X221933408Y-88338530D01*
X220899069Y-88421123D01*
X219305020Y-65625164D01*
X217710971Y-42829206D01*
X219829533Y-42782406D01*
X220291386Y-42768682D01*
X221059338Y-42741472D01*
X222107784Y-42701822D01*
X223411114Y-42650781D01*
X224943724Y-42589395D01*
X226680005Y-42518713D01*
X228594347Y-42439780D01*
X230661147Y-42353644D01*
X232854794Y-42261351D01*
X235149683Y-42163948D01*
X237520205Y-42062484D01*
X239069518Y-41995711D01*
X256190940Y-41255816D01*
X256347558Y-42250427D01*
G37*
D14*
%TO.C,SW1*%
X121847364Y-96755901D02*
X133618619Y-97579027D01*
X122133365Y-92665888D02*
X121847364Y-96755901D01*
X122412391Y-88675632D02*
X122698393Y-84585619D01*
X122698393Y-84585619D02*
X125092546Y-84753035D01*
X127287187Y-84906499D02*
X129880854Y-85087866D01*
X132075495Y-85241330D02*
X134469648Y-85408745D01*
X133904621Y-93489014D02*
X133618619Y-97579027D01*
X134469648Y-85408745D02*
X134183647Y-89498758D01*
X130158506Y-91082323D02*
G75*
G02*
X126158506Y-91082323I-2000000J0D01*
G01*
X126158506Y-91082323D02*
G75*
G02*
X130158506Y-91082323I2000000J0D01*
G01*
X128009510Y-96653609D02*
X127747075Y-96966064D01*
X127530679Y-96620126D01*
X128009510Y-96653609D01*
G36*
X128009510Y-96653609D02*
G01*
X127747075Y-96966064D01*
X127530679Y-96620126D01*
X128009510Y-96653609D01*
G37*
%TD*%
M02*
