M48
; DRILL file {KiCad 8.0.3} date 2024-09-04T22:14:08+0200
; FORMAT={-:-/ absolute / inch / decimal}
; #@! TF.CreationDate,2024-09-04T22:14:08+02:00
; #@! TF.GenerationSoftware,Kicad,Pcbnew,8.0.3
; #@! TF.FileFunction,Plated,1,2,PTH
FMAT,2
INCH
; #@! TA.AperFunction,Plated,PTH,ViaDrill
T1C0.0118
; #@! TA.AperFunction,Plated,PTH,ComponentDrill
T2C0.0236
; #@! TA.AperFunction,Plated,PTH,ComponentDrill
T3C0.0394
; #@! TA.AperFunction,Plated,PTH,ComponentDrill
T4C0.0591
; #@! TA.AperFunction,Plated,PTH,ComponentDrill
T5C0.1181
%
G90
G05
T1
X5.7188Y-3.0625
X5.7188Y-3.1562
X5.7188Y-3.5312
X5.7188Y-3.625
X5.7734Y-3.0002
X5.8438Y-2.6562
X5.8438Y-3.0
X5.9062Y-2.2812
X5.9062Y-3.1875
X5.9062Y-3.5
X5.9355Y-2.8033
X5.9375Y-2.75
X5.9983Y-2.0296
X6.0027Y-2.3159
X6.0625Y-2.25
X6.0625Y-3.0002
X6.0625Y-3.3438
X6.0625Y-3.7205
X6.1031Y-3.7205
X6.1363Y-3.0
X6.2188Y-2.25
X6.2188Y-3.1875
X6.2188Y-3.5
X6.25Y-2.0312
X6.25Y-2.2812
X6.25Y-2.6875
X6.25Y-3.2099
X6.2812Y-2.8125
X6.4062Y-3.1562
X6.4062Y-3.5312
X6.4062Y-3.625
X6.4141Y-2.8754
T3
X4.9268Y-3.8736
X4.9666Y-3.3041
X5.025Y-3.8805
X5.1232Y-3.8873
X5.163Y-3.3179
T5
X1.9103Y-3.2664
X2.0561Y-2.5248
X2.1666Y-3.1841
X2.2019Y-1.7832
X2.3125Y-2.4425
X2.4583Y-1.7008
X2.6584Y-3.3187
X2.8978Y-2.5837
X2.9148Y-3.2364
X3.1372Y-1.8486
X3.1542Y-2.5013
X3.3935Y-1.7662
X3.4066Y-3.3711
X3.646Y-2.636
X3.663Y-3.2887
X3.8853Y-1.9009
X3.9023Y-2.5537
X4.1417Y-1.8186
X4.1548Y-3.4234
X4.3941Y-2.6883
X4.4111Y-3.3411
X4.6335Y-1.9532
X4.6505Y-2.606
X4.8899Y-1.8709
X4.903Y-3.4757
X5.1423Y-2.7406
X5.1593Y-3.3934
X5.3817Y-2.0055
X5.3987Y-2.6583
X5.638Y-1.9232
X6.5815Y-1.9859
X6.7797Y-3.4757
X6.8209Y-2.721
X6.824Y-1.8687
X7.0221Y-3.3585
X7.0633Y-2.6038
X7.3297Y-1.9336
X7.5691Y-2.6687
X7.5721Y-1.8164
X7.8084Y-3.4038
X7.8115Y-2.5515
X8.0508Y-3.2866
X8.0779Y-1.8813
X8.3172Y-2.6164
X8.3203Y-1.7641
X8.5566Y-3.3515
X8.5597Y-2.4992
X8.799Y-3.2343
X8.8261Y-1.829
X9.0654Y-2.5641
X9.0685Y-1.7118
X9.3048Y-3.2992
X9.3078Y-2.4469
X9.5472Y-3.182
X9.7613Y-1.7636
X9.9071Y-2.5052
X10.0037Y-1.6464
X10.053Y-3.2468
X10.1495Y-2.388
X10.2954Y-3.1296
T2
G00X5.9549Y-1.7594
M15
G01X5.9549Y-1.783
M16
G05
G00X5.9549Y-1.9141
M15
G01X5.9549Y-1.9574
M16
G05
G00X6.2951Y-1.7594
M15
G01X6.2951Y-1.783
M16
G05
G00X6.2951Y-1.9141
M15
G01X6.2951Y-1.9574
M16
G05
T4
G00X4.8239Y-3.5961
M15
G01X4.8275Y-3.545
M16
G05
G00X5.2638Y-3.6268
M15
G01X5.2673Y-3.5758
M16
G05
M30
